<mxfile host="app.diagrams.net" modified="2023-05-12T12:37:29.833Z" agent="Mozilla/5.0 (Macintosh; Intel Mac OS X 10_15_7) AppleWebKit/605.1.15 (KHTML, like Gecko) Version/16.4 Safari/605.1.15" version="21.2.9" etag="g5JAj_-XTfxy6lkLZBPA" type="github">
  <diagram name="Pagina-1" id="2-6sm0K9Tg7f1D29ZDU8">
    <mxGraphModel>
      <root>
        <mxCell id="0" />
        <mxCell id="1" parent="0" />
      </root>
    </mxGraphModel>
  </diagram>
</mxfile>
